<svg id="Component_110_1" data-name="Component 110 – 1" xmlns="http://www.w3.org/2000/svg" width="289" height="203.137" viewBox="0 0 289 203.137">
  <path id="Path_5291" data-name="Path 5291" d="M636.333,685.594c-51.941,77.36,4.014,113.974,51.82,142.436S844.441,860.955,895,782.5c20-30.306,2.3-58.826,2.3-58.826C862.923,648.335,709.41,608.193,636.333,685.594Z" transform="translate(-615.528 -643.758)" fill="#c551b6" fill-rule="evenodd"/>
  <g id="Group_2061" data-name="Group 2061" transform="translate(22.159 13.342)">
    <g id="Group_1633" data-name="Group 1633" transform="translate(0 0)">
      <g id="Group_1632" data-name="Group 1632">
        <path id="Path_4433" data-name="Path 4433" d="M397.321,498.892c0,46.9-50.933,84.926-113.761,84.926S169.8,545.8,169.8,498.892s50.934-84.93,113.763-84.93S397.321,451.987,397.321,498.892Z" transform="translate(-169.797 -413.962)" fill="#fff" opacity="0"/>
      </g>
    </g>
  </g>
  <text id="Lorem_ipsum_or_lipsum_as_it_is_sometimes_known_is_dummy_text_used_in_laying_out_" data-name="Lorem ipsum, or lipsum as it is sometimes known, is dummy text used in laying out " transform="translate(62.2 70.159)" fill="#fff" font-size="15" font-family="Poppins-Bold, Poppins" font-weight="700"><tspan x="0.844" y="13">The Unique Learning Culture </tspan><!-- <tspan x="18.376" y="29">AS IT IS SOMETIMES </tspan><tspan x="2.506" y="45">KNOWN, IS DUMMY TEXT </tspan><tspan x="15.718" y="61">USED IN LAYING OUT </tspan> --></text>
</svg>
